<svg width="32" height="32" viewBox="0 0 32 32" fill="none" xmlns="http://www.w3.org/2000/svg">
  <!-- Background circle with gradient -->
  <circle cx="16" cy="16" r="15" fill="url(#gradient)" stroke="#1f6feb" stroke-width="2"/>
  
  <!-- Server/Network icon -->
  <rect x="8" y="10" width="16" height="2" rx="1" fill="white"/>
  <rect x="8" y="13" width="16" height="2" rx="1" fill="white"/>
  <rect x="8" y="16" width="16" height="2" rx="1" fill="white"/>
  <rect x="8" y="19" width="16" height="2" rx="1" fill="white"/>
  
  <!-- Status indicators (small dots) -->
  <circle cx="10" cy="11" r="1" fill="#3fb950"/>
  <circle cx="10" cy="14" r="1" fill="#fb8500"/>
  <circle cx="10" cy="17" r="1" fill="#3fb950"/>
  <circle cx="10" cy="20" r="1" fill="#f85149"/>
  
  <!-- Rocket accent -->
  <path d="M25 7L22 10L24 12L27 9L25 7Z" fill="#fb8500"/>
  <path d="M22 10L20 8L21 7L23 9L22 10Z" fill="#1f6feb"/>
  
  <defs>
    <linearGradient id="gradient" x1="0%" y1="0%" x2="100%" y2="100%">
      <stop offset="0%" style="stop-color:#1f6feb;stop-opacity:0.8"/>
      <stop offset="100%" style="stop-color:#238636;stop-opacity:0.8"/>
    </linearGradient>
  </defs>
</svg>